<?xml version="1.0" encoding="UTF-8"?>
<svg version="1.1" xmlns="http://www.w3.org/2000/svg" width="75" height="44">
<path d="M0 0 C24.75 0 49.5 0 75 0 C75 14.52 75 29.04 75 44 C50.25 44 25.5 44 0 44 C0 29.48 0 14.96 0 0 Z " fill="#FDFEFE" transform="translate(0,0)"/>
<path d="M0 0 C1.32 0.33 2.64 0.66 4 1 C4 8.92 4 16.84 4 25 C2.35 25.33 0.7 25.66 -1 26 C-1.66 25.34 -2.32 24.68 -3 24 C-3 23.01 -3 22.02 -3 21 C-4.32 20.67 -5.64 20.34 -7 20 C-7 18.02 -7 16.04 -7 14 C-5.35 13.67 -3.7 13.34 -2 13 C-2 12.34 -2 11.68 -2 11 C-3.32 10.67 -4.64 10.34 -6 10 C-6 8.68 -6 7.36 -6 6 C-5.38125 5.7525 -4.7625 5.505 -4.125 5.25 C-1.64931313 3.79371361 -1.04874998 2.62187494 0 0 Z " fill="#FAFBFC" transform="translate(29,6)"/>
<path d="M0 0 C0.9731681 2.9195043 1.1929546 5.05444951 1.31640625 8.10546875 C1.37924805 9.57983398 1.37924805 9.57983398 1.44335938 11.08398438 C1.48267578 12.10814453 1.52199219 13.13230469 1.5625 14.1875 C1.60568359 15.22326172 1.64886719 16.25902344 1.69335938 17.32617188 C1.79944366 19.8839819 1.90150146 22.44188845 2 25 C3.65 25.33 5.3 25.66 7 26 C7.268125 25.360625 7.53625 24.72125 7.8125 24.0625 C9 22 9 22 12 21 C12.33 20.01 12.66 19.02 13 18 C13.66 18 14.32 18 15 18 C14.58485103 22.8434046 12.53791301 24.81587829 9 28 C8.67 28.33 8.34 28.66 8 29 C6.06256656 28.7327678 4.12546844 28.46250331 2.19140625 28.171875 C-0.26624054 27.87794297 -0.26624054 27.87794297 -3.6875 28.75 C-7 29 -7 29 -9.8125 26.6875 C-10.534375 25.800625 -11.25625 24.91375 -12 24 C-12.66 23.34 -13.32 22.68 -14 22 C-14.21531344 18.12435817 -14.11450049 14.71500162 -13 11 C-12.896875 10.13375 -12.79375 9.2675 -12.6875 8.375 C-12.3471875 7.199375 -12.3471875 7.199375 -12 6 C-10.68352881 5.30062468 -9.34977849 4.63270867 -8 4 C-7.34786708 1.97536745 -7.34786708 1.97536745 -7 0 C-4.3333581 -1.33332095 -2.83319697 -0.67102033 0 0 Z M-5 1 C-5.2475 1.61875 -5.495 2.2375 -5.75 2.875 C-7.20628639 5.35068687 -8.37812506 5.95125002 -11 7 C-10.67 8.65 -10.34 10.3 -10 12 C-9.01 12 -8.02 12 -7 12 C-7 12.66 -7 13.32 -7 14 C-8.65 14.33 -10.3 14.66 -12 15 C-12 16.98 -12 18.96 -12 21 C-10.68 21.33 -9.36 21.66 -8 22 C-7.67 23.32 -7.34 24.64 -7 26 C-5.34385343 26.38218767 -3.67542976 26.71395102 -2 27 C-0.73818905 25.96207228 -0.73818905 25.96207228 -0.88647461 23.68334961 C-0.89171143 22.68311768 -0.89694824 21.68288574 -0.90234375 20.65234375 C-0.90556641 19.57275391 -0.90878906 18.49316406 -0.91210938 17.38085938 C-0.92048828 16.24455078 -0.92886719 15.10824219 -0.9375 13.9375 C-0.94201172 12.79732422 -0.94652344 11.65714844 -0.95117188 10.48242188 C-0.96300253 7.65489649 -0.9794859 4.8274736 -1 2 C-2.32 1.67 -3.64 1.34 -5 1 Z " fill="#4F93C7" transform="translate(34,5)"/>
<path d="M0 0 C0.66 0 1.32 0 2 0 C2.33 1.65 2.66 3.3 3 5 C4.32 5.33 5.64 5.66 7 6 C7 6.66 7 7.32 7 8 C6.360625 8.268125 5.72125 8.53625 5.0625 8.8125 C2.66868314 9.88667752 2.66868314 9.88667752 2 13 C1.34 13 0.68 13 0 13 C-0.33 11.68 -0.66 10.36 -1 9 C-2.32 8.67 -3.64 8.34 -5 8 C-5 6 -5 6 -3.0625 4 C-2.381875 3.34 -1.70125 2.68 -1 2 C-0.67 1.34 -0.34 0.68 0 0 Z " fill="#2F4D76" transform="translate(42,0)"/>
<path d="M0 0 C-0.33 0.99 -0.66 1.98 -1 3 C-2.32 2.67 -3.64 2.34 -5 2 C-5.2475 2.639375 -5.495 3.27875 -5.75 3.9375 C-7 6 -7 6 -9.125 6.75 C-10.053125 6.87375 -10.053125 6.87375 -11 7 C-10.73323796 8.98491642 -10.73323796 8.98491642 -10 11 C-9.01 11.33 -8.02 11.66 -7 12 C-7 12.66 -7 13.32 -7 14 C-8.65 14.33 -10.3 14.66 -12 15 C-12.33 16.98 -12.66 18.96 -13 21 C-13.33 21 -13.66 21 -14 21 C-14.0805819 17.45439661 -13.98827685 14.40406471 -13 11 C-12.896875 10.13375 -12.79375 9.2675 -12.6875 8.375 C-12.3471875 7.199375 -12.3471875 7.199375 -12 6 C-10.68352881 5.30062468 -9.34977849 4.63270867 -8 4 C-7.34786708 1.97536745 -7.34786708 1.97536745 -7 0 C-4.3333581 -1.33332095 -2.83319697 -0.67102033 0 0 Z " fill="#406690" transform="translate(34,5)"/>
<path d="M0 0 C0.66 0 1.32 0 2 0 C1.58485103 4.8434046 -0.46208699 6.81587829 -4 10 C-4.33 10.33 -4.66 10.66 -5 11 C-7.33944736 10.71269945 -9.6739143 10.38063221 -12 10 C-12 9.01 -12 8.02 -12 7 C-9.03 7.495 -9.03 7.495 -6 8 C-5.731875 7.360625 -5.46375 6.72125 -5.1875 6.0625 C-4 4 -4 4 -1 3 C-0.67 2.01 -0.34 1.02 0 0 Z " fill="#3EA5E9" transform="translate(47,23)"/>
<path d="M0 0 C0.66 0.33 1.32 0.66 2 1 C2 1.66 2 2.32 2 3 C2.99 3.33 3.98 3.66 5 4 C3.35 5.65 1.7 7.3 0 9 C-1.32 7.35 -2.64 5.7 -4 4 C-2.68 2.68 -1.36 1.36 0 0 Z " fill="#2E6A9E" transform="translate(48,12)"/>
<path d="M0 0 C0.268125 0.639375 0.53625 1.27875 0.8125 1.9375 C1.88667752 4.33131686 1.88667752 4.33131686 5 5 C5.6837045 6.32467746 6.34964186 7.65863633 7 9 C7.99 9.66 8.98 10.32 10 11 C8.3125 11.8125 8.3125 11.8125 6 12 C3.12969001 9.53973429 1.09673857 7.14510786 -1 4 C-0.625 1.8125 -0.625 1.8125 0 0 Z " fill="#4EABE9" transform="translate(21,22)"/>
<path d="M0 0 C0.99 0.33 1.98 0.66 3 1 C2.67 8.92 2.34 16.84 2 25 C1.67 25 1.34 25 1 25 C0.67 16.75 0.34 8.5 0 0 Z " fill="#C2D3E2" transform="translate(34,5)"/>
<path d="M0 0 C1.32 0.33 2.64 0.66 4 1 C4 1.66 4 2.32 4 3 C2.35 3.33 0.7 3.66 -1 4 C-1.33 5.98 -1.66 7.96 -2 10 C-2.33 10 -2.66 10 -3 10 C-3.36923077 4.58461538 -3.36923077 4.58461538 -1.5 1.625 C-1.005 1.08875 -0.51 0.5525 0 0 Z " fill="#357CB4" transform="translate(23,16)"/>
<path d="M0 0 C0.66 0 1.32 0 2 0 C2.33 1.65 2.66 3.3 3 5 C1.02 5.33 -0.96 5.66 -3 6 C-2.01 4.02 -1.02 2.04 0 0 Z " fill="#404A69" transform="translate(42,0)"/>
<path d="M0 0 C-1.125 1.5 -1.125 1.5 -3 3 C-6.1875 3.1875 -6.1875 3.1875 -9 3 C-9 2.34 -9 1.68 -9 1 C-5.92677456 0.08941469 -3.19902639 -0.08886184 0 0 Z " fill="#1D355E" transform="translate(46,5)"/>
<path d="M0 0 C-0.33 0.99 -0.66 1.98 -1 3 C-1.61875 2.79375 -2.2375 2.5875 -2.875 2.375 C-3.57625 2.25125 -4.2775 2.1275 -5 2 C-5.66 2.66 -6.32 3.32 -7 4 C-7 2.68 -7 1.36 -7 0 C-4.3333581 -1.33332095 -2.83319697 -0.67102033 0 0 Z " fill="#33476B" transform="translate(34,5)"/>
</svg>
