<svg width="54" height="59" viewBox="0 0 54 59" fill="none" xmlns="http://www.w3.org/2000/svg">
<path d="M18.7854 9.52804C20.38 4.86137 26.828 4.72004 28.7187 9.10404L28.8787 9.53071L31.0307 15.824C31.5239 17.2673 32.3209 18.5881 33.3679 19.6972C34.4148 20.8063 35.6875 21.6779 37.1 22.2534L37.6787 22.4694L43.972 24.6187C48.6387 26.2134 48.78 32.6614 44.3987 34.552L43.972 34.712L37.6787 36.864C36.2349 37.3569 34.9137 38.1537 33.8041 39.2007C32.6945 40.2477 31.8224 41.5206 31.2467 42.9334L31.0307 43.5094L28.8814 49.8054C27.2867 54.472 20.8387 54.6134 18.9507 50.232L18.7854 49.8054L16.636 43.512C16.1432 42.0683 15.3464 40.747 14.2993 39.6374C13.2523 38.5278 11.9795 37.6558 10.5667 37.08L9.9907 36.864L3.69737 34.7147C-0.971966 33.12 -1.1133 26.672 3.2707 24.784L3.69737 24.6187L9.9907 22.4694C11.434 21.9762 12.7547 21.1792 13.8638 20.1322C14.9729 19.0852 15.8446 17.8125 16.42 16.4L16.636 15.824L18.7854 9.52804ZM23.8334 11.2507L21.684 17.544C20.9331 19.7449 19.7114 21.7555 18.1041 23.436C16.4968 25.1165 14.5426 26.4265 12.3774 27.2747L11.7107 27.5174L5.41737 29.6667L11.7107 31.816C13.9115 32.567 15.9222 33.7887 17.6027 35.3959C19.2832 37.0032 20.5932 38.9575 21.4414 41.1227L21.684 41.7894L23.8334 48.0827L25.9827 41.7894C26.7337 39.5886 27.9553 37.5779 29.5626 35.8974C31.1699 34.2169 33.1242 32.9069 35.2894 32.0587L35.956 31.8187L42.2494 29.6667L35.956 27.5174C33.7552 26.7664 31.7446 25.5448 30.064 23.9375C28.3835 22.3302 27.0736 20.3759 26.2254 18.2107L25.9854 17.544L23.8334 11.2507ZM45.1667 0.333375C45.6656 0.333373 46.1545 0.473316 46.5778 0.737298C47.0011 1.00128 47.3419 1.37871 47.5614 1.82671L47.6894 2.13871L48.6227 4.87471L51.3614 5.80804C51.8613 5.9779 52.2996 6.29235 52.6206 6.71155C52.9417 7.13075 53.1311 7.63582 53.1648 8.16276C53.1985 8.6897 53.075 9.21479 52.81 9.67147C52.5449 10.1282 52.1503 10.4959 51.676 10.728L51.3614 10.856L48.6254 11.7894L47.692 14.528C47.5219 15.0279 47.2072 15.4659 46.7878 15.7867C46.3685 16.1075 45.8633 16.2966 45.3364 16.33C44.8095 16.3634 44.2845 16.2396 43.828 15.9744C43.3715 15.7091 43.004 15.3144 42.772 14.84L42.644 14.528L41.7107 11.792L38.972 10.8587C38.4721 10.6889 38.0338 10.3744 37.7128 9.9552C37.3917 9.536 37.2023 9.03093 37.1686 8.50399C37.1349 7.97705 37.2584 7.45196 37.5235 6.99528C37.7885 6.53859 38.1831 6.17087 38.6574 5.93871L38.972 5.81071L41.708 4.87737L42.6414 2.13871C42.8212 1.61184 43.1614 1.15446 43.6143 0.830704C44.0671 0.506945 44.61 0.33304 45.1667 0.333375Z" fill="url(#paint0_linear_639_628)"/>
<defs>
<linearGradient id="paint0_linear_639_628" x1="26.628" y1="0.333374" x2="26.628" y2="53.4151" gradientUnits="userSpaceOnUse">
<stop stop-color="#1A1938"/>
<stop offset="1" stop-color="#22AAFF"/>
</linearGradient>
</defs>
</svg>
